<?xml version="1.0" encoding="utf-8"?>
<!-- Generator: Adobe Illustrator 23.0.0, SVG Export Plug-In . SVG Version: 6.00 Build 0)  -->
<svg version="1.1" id="Layer_1" xmlns="http://www.w3.org/2000/svg" xmlns:xlink="http://www.w3.org/1999/xlink" x="0px" y="0px"
	 viewBox="0 0 800 147" style="enable-background:new 0 0 800 147;" xml:space="preserve">
<style type="text/css">
	.st0{fill:#FFFFFF;}
</style>
<g>
	<path class="st0" d="M256.8,67.1l-17.1,20.2h-3.3l-16.7-20.1v39.7H201V40.1h19.7l17.5,22.6l17.5-22.6h19.6v66.8h-18.7V67.1z
		 M322.5,108.5c-21.8,0-37.1-12.7-37.1-35c0-21.9,15.3-35,37.1-35c21.9,0,37.1,12.8,37.1,35C359.6,95.8,344.4,108.5,322.5,108.5z
		 M322.5,54.6c-10.8,0-18.2,7.8-18.2,18.9c0,11.1,7.5,18.9,18.2,18.9c11.1,0,18.2-7.8,18.2-18.9C340.7,62.1,333.5,54.6,322.5,54.6z
		 M388.3,40.1v50.7h31.9v16h-50.8V40.1H388.3z M457.2,40.1c23.6,0,34.9,14.5,34.9,32.9s-11,33.9-34.9,33.9h-28.6V40.1H457.2z
		 M447.3,91h9.9c12,0,16.2-9,16.2-18.1s-4.7-17-16.2-17h-9.9V91z M535.5,108.5c-21.8,0-37.1-12.7-37.1-35c0-21.9,15.3-35,37.1-35
		c21.9,0,37.1,12.8,37.1,35C572.6,95.8,557.5,108.5,535.5,108.5z M535.5,54.6c-10.8,0-18.2,7.8-18.2,18.9c0,11.1,7.5,18.9,18.2,18.9
		c11.1,0,18.2-7.8,18.2-18.9C553.7,62.1,546.6,54.6,535.5,54.6z"/>
	<path class="st0" d="M652.5,106.9h-10.7l-8.3-21l-7-21.1l-7,21.3l-8.1,20.8h-10.7l-24.5-66.8h14.1L606,88.3l16.2-48.2h8.2
		l16.7,48.2l15.3-48.2h14.1L652.5,106.9z M734.1,106.9h-50c0-22.2,0-44.5,0-66.8h50v12.2h-37.5v15.4h36.1v11.7h-36.1v15.1h37.5
		V106.9z M798.1,59.5c0,5.1-2.5,10.1-8.7,12.9c7.8,2.4,10.7,10.7,10.7,14.9c0,14.9-11.2,19.6-25,19.6c-10.6,0-21.1,0-31.7,0V40.1
		c10.5,0,21.1,0,31.7,0C788.2,40.1,798.1,46,798.1,59.5z M755.8,66.9h19.3c7.9,0,10.5-3.3,10.5-7.2c0-3.1-2.5-8.2-10.5-8.2h-19.3
		V66.9z M755.8,95.1h19.3c5.1,0,12.5-1.7,12.5-8c0-6-7.3-9.2-12.5-9.2h-19.3V95.1z"/>
	<polygon class="st0" points="52.3,23 78.9,57.2 105.4,23 135.1,23 135.1,124 157.5,147.1 157.5,-0.1 52.3,-0.1 	"/>
	<polygon class="st0" points="78.5,97.4 50.7,64 50.7,124 22.5,124 22.5,23 0.1,-0.1 0.1,147.1 106.8,147.1 106.8,124 106.8,63.8 	
		"/>
</g>
</svg>
