<?xml version="1.0" encoding="utf-8"?>
<!-- Generator: Adobe Illustrator 23.0.4, SVG Export Plug-In . SVG Version: 6.00 Build 0)  -->
<svg version="1.1" id="Layer_1" xmlns="http://www.w3.org/2000/svg" xmlns:xlink="http://www.w3.org/1999/xlink" x="0px" y="0px"
	 viewBox="0 0 763.6 140.5" style="enable-background:new 0 0 763.6 140.5;" xml:space="preserve">
<style type="text/css">
	.st0{fill:#364F6B;}
	.st1{fill:#4ABCC6;}
</style>
<g>
	<path class="st0" d="M245.1,64.2l-16.3,19.3h-3.2l-15.9-19.2v37.9h-17.8V38.4h18.8L227.4,60l16.7-21.6h18.7v63.7H245V64.2H245.1z
		 M307.7,103.7c-20.8,0-35.4-12.1-35.4-33.4c0-20.9,14.6-33.4,35.4-33.4c20.9,0,35.4,12.2,35.4,33.4
		C343.1,91.6,328.7,103.7,307.7,103.7z M307.7,52.2c-10.3,0-17.4,7.5-17.4,18c0,10.6,7.2,18,17.4,18c10.6,0,17.4-7.5,17.4-18
		C325.1,59.3,318.3,52.2,307.7,52.2z M370.6,38.4v48.4h30.5v15.3h-48.5V38.4H370.6z M436.3,38.4c22.5,0,33.3,13.8,33.3,31.4
		s-10.5,32.3-33.3,32.3H409V38.4H436.3z M426.8,86.9h9.5c11.5,0,15.5-8.6,15.5-17.3s-4.5-16.2-15.5-16.2h-9.5V86.9z M511.1,103.7
		c-20.8,0-35.4-12.1-35.4-33.4c0-20.9,14.6-33.4,35.4-33.4c20.9,0,35.4,12.2,35.4,33.4C546.5,91.6,532,103.7,511.1,103.7z
		 M511.1,52.2c-10.3,0-17.4,7.5-17.4,18c0,10.6,7.2,18,17.4,18c10.6,0,17.4-7.5,17.4-18C528.5,59.3,521.6,52.2,511.1,52.2z"/>
	<path class="st1" d="M622.7,102.1h-10.2l-7.9-20L597.9,62l-6.6,20.3l-7.7,19.8h-10.2L550,38.4h13.5l15,46l15.5-46h7.8l15.9,46
		l14.6-46h13.5L622.7,102.1z M700.6,102.1h-47.7c0-21.2,0-42.5,0-63.7h47.7v11.7h-35.8v14.7h34.5V76h-34.5v14.4h35.8V102.1z
		 M761.7,56.9c0,4.9-2.4,9.6-8.3,12.3c7.5,2.3,10.2,10.2,10.2,14.2c0,14.2-10.6,18.7-23.8,18.7c-10.1,0-20.1,0-30.2,0V38.4
		c10,0,20.1,0,30.2,0C752.3,38.4,761.7,44.1,761.7,56.9z M721.4,64h18.4c7.6,0,10-3.2,10-6.8c0-2.9-2.4-7.8-10-7.8h-18.4V64z
		 M721.4,90.9h18.4c4.9,0,11.9-1.6,11.9-7.6c0-5.7-7-8.7-11.9-8.7h-18.4V90.9z"/>
	<polygon class="st1" points="49.9,22.1 75.2,54.7 100.5,22.1 128.9,22.1 128.9,118.4 150.3,140.5 150.3,0 49.9,0 	"/>
	<polygon class="st0" points="74.9,93.1 48.4,61.2 48.4,118.4 21.4,118.4 21.4,22.1 0,0 0,140.5 101.9,140.5 101.9,118.4 101.9,61 	
		"/>
</g>
</svg>
